# xmcd CD database file
#
# Track frame offsets:
#	150
#	11904
#	25784
#	39170
#	52016
#	63218
#	75800
#	88871
#	101744
#	113749
#	126556
#	137906
#	152603
#	164073
#	174549
#	189618
#	203312
#	216085
#	231008
#	242400
#	255292
#	268812
#	282443
#	296706
#
# Disc length: 4136 seconds
#
# Revision: 0
# Processed by: cddbd v1.5.2PL0 Copyright (c) Steve Scherf et al.
# Submitted via: CDex 1.70beta2
#
DISCID=50102618
DTITLE=Allanovy sestry - Mezi peti linkami
DYEAR=2008
DGENRE=Jazz
TTITLE0=Carodej
TTITLE1=Kdepak copak
TTITLE2=Po cem tolik touzim
TTITLE3=Kratce po pulnoci
TTITLE4=Dnes krasne tak
TTITLE5=Vite proc
TTITLE6=Liska a vrana
TTITLE7=Svet je vesely
TTITLE8=Mezi peti linkami
TTITLE9=Za modrym obzorem
TTITLE10=My umime hrat
TTITLE11=Vetrne zamky
TTITLE12=Tik tak
TTITLE13=Divoky vitr
TTITLE14=Poznate lehce nas rytmus
TTITLE15=Skoda lasky
TTITLE16=Zajeci pacicka
TTITLE17=Marita
TTITLE18=You Are My Sunshine
TTITLE19=Heimat deine Sterne
TTITLE20=Zeit muss man haben
TTITLE21=Der erste kuss
TTITLE22=Budes mou
TTITLE23=A zase jeden krasny den konci
EXTD=YEAR: 2008
EXTT0=
EXTT1=
EXTT2=
EXTT3=
EXTT4=
EXTT5=
EXTT6=
EXTT7=
EXTT8=
EXTT9=
EXTT10=
EXTT11=
EXTT12=
EXTT13=
EXTT14=
EXTT15=
EXTT16=
EXTT17=
EXTT18=
EXTT19=
EXTT20=
EXTT21=
EXTT22=
EXTT23=
PLAYORDER=
